<svg width="44" height="48" viewBox="0 0 22 24" fill="none" xmlns="http://www.w3.org/2000/svg">
<rect width="22" height="24" fill="#F5F5F5"/>
<g clip-path="url(#clip0_19_222)">
<rect width="1444" height="3609" transform="translate(-222 -45)" fill="white"/>
<rect x="-14.0663" y="-17" width="50.1389" height="56.1556" rx="4" fill="#F1F0F0"/>
<path d="M1.34261 9.45698L10.1169 0.682674C10.6064 0.193341 11.3998 0.193341 11.8893 0.682674L20.6636 9.45698C20.8987 9.692 21.0309 10.0108 21.0309 10.3432V22.359C21.0309 23.0512 20.4697 23.6124 19.7774 23.6124H13.5101V14.8381H8.49618V23.6124H2.22881C1.53654 23.6124 0.975342 23.0512 0.975342 22.359V10.3432C0.975342 10.0108 1.10752 9.692 1.34261 9.45698Z" fill="#454D4A"/>
</g>
<defs>
<clipPath id="clip0_19_222">
<rect width="1444" height="3609" fill="white" transform="translate(-222 -45)"/>
</clipPath>
</defs>
</svg>
