<svg width="31.5" height="37.5" viewBox="0 0 21 25" fill="none" xmlns="http://www.w3.org/2000/svg">
<path d="M4.50249 7.01795C4.50249 3.52491 7.33416 0.693237 10.8272 0.693237C14.3202 0.693237 17.1519 3.52491 17.1519 7.01795C17.1519 10.511 14.3202 13.3427 10.8272 13.3427C7.33416 13.3427 4.50249 10.511 4.50249 7.01795ZM10.8272 10.8128C12.923 10.8128 14.622 9.11378 14.622 7.01795C14.622 4.92213 12.923 3.22312 10.8272 3.22312C8.73138 3.22312 7.03237 4.92213 7.03237 7.01795C7.03237 9.11378 8.73138 10.8128 10.8272 10.8128Z" fill="#454D4A"/>
<path d="M3.6716 17.5716C1.77382 19.4693 0.707657 22.0433 0.707657 24.7272H3.23754C3.23754 22.7143 4.03717 20.7838 5.4605 19.3605C6.88384 17.9371 8.8143 17.1375 10.8272 17.1375C12.8401 17.1375 14.7706 17.9371 16.1939 19.3605C17.6172 20.7838 18.4169 22.7143 18.4169 24.7272H20.9467C20.9467 22.0433 19.8806 19.4693 17.9828 17.5716C16.085 15.6738 13.5111 14.6076 10.8272 14.6076C8.14333 14.6076 5.56939 15.6738 3.6716 17.5716Z" fill="#454D4A"/>
</svg>
